<?xml version="1.0" encoding="UTF-8" standalone="no"?>
<!-- Created with Inkscape (http://www.inkscape.org/) -->

<svg
   width="88"
   height="31"
   viewBox="0 0 88 31"
   version="1.1"
   id="svg1"
   xml:space="preserve"
   xmlns="http://www.w3.org/2000/svg"
   xmlns:svg="http://www.w3.org/2000/svg"><defs
     id="defs1" /><g
     id="layer1"><g
       id="g6"
       style="display:inline"><path
         fill="#5bcefa"
         d="M 0,0 H 88 V 31 H 0 Z"
         id="path1-0"
         style="stroke-width:0.01" /><path
         fill="#f5a9b8"
         d="M 0,0 H 88 V 25 H 0 Z"
         id="path2-2"
         style="stroke-width:0.01" /><path
         fill="#ffffff"
         d="M 0,0 H 88 V 19 H 0 Z"
         id="path3-4"
         style="stroke-width:0.01" /><path
         fill="#f5a9b8"
         d="M 0,0 H 88 V 12 H 0 Z"
         id="path4-8"
         style="stroke-width:0.01" /><path
         fill="#5bcefa"
         d="M 0,0 H 88 V 6 H 0 Z"
         id="path5-3"
         style="stroke-width:0.01" /></g><g
       id="g11"
       style="display:inline"><path
         fill="#5bcefa"
         d="M 0,0 H 88 V 31 H 0 Z"
         id="path1-0-3"
         style="display:inline;fill:#0038a8;fill-opacity:1;stroke-width:0.01" /><path
         fill="#ffffff"
         d="M 0,0 H 88 V 19 H 0 Z"
         id="path3-4-6"
         style="display:inline;fill:#9b4f96;fill-opacity:1;stroke-width:0.01" /><path
         fill="#f5a9b8"
         d="M 0,0 H 88 V 12 H 0 Z"
         id="path4-8-2"
         style="display:inline;fill:#d60270;fill-opacity:1;stroke-width:0.01" /></g><g
       id="g1"
       clip-path="none"
       style="display:none"><path
         fill="#a20160"
         d="M 0,0 H 88 V 31 H 0 Z"
         id="path1"
         style="stroke-width:0.01" /><path
         fill="#d161a2"
         d="M 0,0 H 88 V 25 H 0 Z"
         id="path2"
         style="display:inline;stroke-width:0.01" /><path
         fill="#ffffff"
         d="M 0,0 H 88 V 19 H 0 Z"
         id="path3"
         style="display:inline;stroke-width:0.01" /><path
         fill="#fd9855"
         d="M 0,0 H 88 V 12 H 0 Z"
         id="path4"
         style="display:inline;stroke-width:0.01" /><path
         fill="#d62e02"
         d="M 0,0 H 88 V 6 H 0 Z"
         id="path5"
         style="display:inline;stroke-width:0.01" /></g></g><g
     id="layer3"><rect
       style="display:none;fill:#000000;fill-opacity:1"
       id="rect11"
       width="44"
       height="31"
       x="0"
       y="0" /><path
       id="rect10"
       d="M 0,0 H 56.591109 L 32.284865,31 H 0 Z"
       style="display:none" /><path
       id="path11"
       d="M 88,0 0,31 V 0 Z"
       style="display:none" /></g></svg>
