<?xml version="1.0" encoding="UTF-8"?>
<svg width="88" height="31" version="1.1" viewBox="0 0 88 31" xml:space="preserve" xmlns="http://www.w3.org/2000/svg">
  <g id="flags" stroke-width=".01">
    <g id="trans">
      <path id="trans-5" d="m0 0h88v31h-88z" fill="#5bcefa"/>
      <path id="trans-4" d="m0 0h88v25h-88z" fill="#f5a9b8"/>
      <path id="trans-3" d="m0 0h88v19h-88z" fill="#fff"/>
      <path id="trans-2" d="m0 0h88v12h-88z" fill="#f5a9b8"/>
      <path id="trans-1" d="m0 0h88v6h-88z" fill="#5bcefa"/>
    </g>
    <g id="lesbi">
      <path id="lesbi-5" d="m0 0h88v31h-88z" fill="#a20160"/>
      <path id="lesbi-4" d="m0 0h88v25h-88z" fill="#d161a2"/>
      <path id="lesbi-3" d="m0 0h88v19h-88z" fill="#fff"/>
      <path id="lesbi-2" d="m0 0h88v12h-88z" fill="#fd9855"/>
      <path id="lesbi-1" d="m0 0h88v6h-88z" fill="#d62e02"/>
    </g>
    <g id="enby">
      <path id="enby-4" d="m0 0h88v31h-88z" fill="#000"/>
      <path id="enby-3" d="m0 0h88v23h-88z" fill="#9d59d2"/>
      <path id="enby-2" d="m0 0h88v16h-88z" fill="#fff"/>
      <path id="enby-1" d="m0 0h88v8h-88z" fill="#fff430"/>
    </g>
    <g id="bi">
      <path id="bi-3" d="m0 0h88v31h-88z" fill="#0038a8"/>
      <path id="bi-2" d="m0 0h88v19h-88z" fill="#9b4f96"/>
      <path id="bi-1" d="m0 0h88v12h-88z" fill="#d60270"/>
    </g>
    <g id="rainbow">
      <path id="rainbow-6" d="m0 0h88v31h-88z" fill="#770088"/>
      <path id="rainbow-5" d="m0 0h88v25h-88z" fill="#004cff"/>
      <path id="rainbow-4" d="m0 0h88v20h-88z" fill="#028121"/>
      <path id="rainbow-3" d="m0 0h88v15h-88z" fill="#ffee00"/>
      <path id="rainbow-2" d="m0 0h88v10h-88z" fill="#ff8d00"/>
      <path id="rainbow-1" d="m0 0h88v5h-88z" fill="#e50000"/>
    </g>
    <g id="lesbi-7">
      <path id="lesbi-7-7" d="m0 0h88v31h-88z" fill="#a30262"/>
      <path id="lesbi-7-6" d="m0 0h88v27h-88z" fill="#b55690"/>
      <path id="lesbi-7-5" d="m0 0h88v22h-88z" fill="#d162a4"/>
      <path id="lesbi-7-4" d="m0 0h88v18h-88z" fill="#fff"/>
      <path id="lesbi-7-3" d="m0 0h88v13h-88z" fill="#ff9a56"/>
      <path id="lesbi-7-2" d="m0 0h88v9h-88z" fill="#ef7627"/>
      <path id="lesbi-7-1" d="m0 0h88v4h-88z" fill="#d52d00"/>
    </g>
    <g id="gay">
      <path id="gay-5" d="m0 0h88v31h-88z" fill="#3d1a78"/>
      <path id="gay-4" d="m0 0h88v25h-88z" fill="#7bade2"/>
      <path id="gay-3" d="m0 0h88v19h-88z" fill="#fff"/>
      <path id="gay-2" d="m0 0h88v12h-88z" fill="#98e8c1"/>
      <path id="gay-1" d="m0 0h88v6h-88z" fill="#078d70"/>
    </g>
    <g id="gay-7">
      <path id="gay-7-1" d="m0 0h88v31h-88z" fill="#3D1A78"/>
      <path id="gay-7-2" d="m0 0h88v27h-88z" fill="#5049CC"/>
      <path id="gay-7-3" d="m0 0h88v22h-88z" fill="#7BADE2"/>
      <path id="gay-7-4" d="m0 0h88v18h-88z" fill="#fff"/>
      <path id="gay-7-5" d="m0 0h88v13h-88z" fill="#98E8C1"/>
      <path id="gay-7-6" d="m0 0h88v9h-88z" fill="#26CEAA"/>
      <path id="gay-7-7" d="m0 0h88v4h-88z" fill="#078D70"/>
    </g>
    <g id="agender">
      <path id="agender-7" d="m0 0h88v31h-88z" fill="#000"/>
      <path id="agender-6" d="m0 0h88v27h-88z" fill="#bababa"/>
      <path id="agender-5" d="m0 0h88v22h-88z" fill="#fff"/>
      <path id="agender-4" d="m0 0h88v18h-88z" fill="#baf484"/>
      <path id="agender-3" d="m0 0h88v13h-88z" fill="#fff"/>
      <path id="agender-2" d="m0 0h88v9h-88z" fill="#bababa"/>
      <path id="agender-1" d="m0 0h88v4h-88z" fill="#000"/>
    </g>
    <g id="fluid">
      <path id="fluid-5" d="m0 0h88v31h-88z" fill="#303cbe"/>
      <path id="fluid-4" d="m0 0h88v25h-88z" fill="#000"/>
      <path id="fluid-3" d="m0 0h88v19h-88z" fill="#bf12d7"/>
      <path id="fluid-2" d="m0 0h88v12h-88z" fill="#fff"/>
      <path id="fluid-1" d="m0 0h88v6h-88z" fill="#fe76a2"/>
    </g>
    <g id="ace">
      <path id="ace-4" d="m0 0h88v31h-88z" fill="#810081"/>
      <path id="ace-3" d="m0 0h88v23h-88z" fill="#fff"/>
      <path id="ace-2" d="m0 0h88v16h-88z" fill="#a4a4a4"/>
      <path id="ace-1" d="m0 0h88v8h-88z" fill="#000"/>
    </g>
    <g id="aro">
      <path id="aro-5" d="m0 0h88v31h-88z" fill="#000"/>
      <path id="aro-4" d="m0 0h88v25h-88z" fill="#ababab"/>
      <path id="aro-3" d="m0 0h88v19h-88z" fill="#fff"/>
      <path id="aro-2" d="m0 0h88v12h-88z" fill="#a8d47a"/>
      <path id="aro-1" d="m0 0h88v6h-88z" fill="#3ba740"/>
    </g>
    <g id="neptunic">
      <path id="neptunic-6" d="m0 0h88v31h-88z" fill="#9799EF"/>
      <path id="neptunic-5" d="m0 0h88v25h-88z" fill="#99B0EA"/>
      <path id="neptunic-4" d="m0 0h88v20h-88z" fill="#A1E6EF"/>
      <path id="neptunic-3" d="m0 0h88v15h-88z" fill="#74E9D4"/>
      <path id="neptunic-2" d="m0 0h88v10h-88z" fill="#3AD5C8"/>
      <path id="neptunic-1" d="m0 0h88v5h-88z" fill="#039BBA"/>
    </g>
    <g id="pan">
      <path id="pan-3" d="m0 0h88v31h-88z" fill="#1ab3ff"/>
      <path id="pan-2" d="m0 0h88v21h-88z" fill="#ffd700"/>
      <path id="pan-1" d="m0 0h88v10h-88z" fill="#ff1c8d"/>
    </g>
    <g id="genderqueer">
      <path id="genderqueer-3" d="m0 0h88v31h-88z" fill="#49821e"/>
      <path id="genderqueer-2" d="m0 0h88v21h-88z" fill="#fff"/>
      <path id="genderqueer-1" d="m0 0h88v10h-88z" fill="#b57fdd"/>
    </g>
    <g id="poly">
      <path id="poly-3" d="m0 0h88v31h-88z" fill="#340c46"/>
      <path id="poly-2" d="m0 0h88v21h-88z" fill="#e50051"/>
      <path id="poly-1" d="m0 0h88v10h-88z" fill="#009fe3"/>
      <path id="poly-quad" d="m0 0h11l11 10-22 21z" fill="#fff"/>
      <path id="poly-heart" d="m8.8724 5.409c-1.2122 1.2122-1.2122 3.1785 0 4.3907l0.19384 0.19383s-0.20652 0.20659-0.20652 0.20659c-1.2122 1.2122-1.2122 3.1785 0 4.3907 1.2122 1.2122 3.1785 1.2122 4.3907 0l0.20652-0.20659 4.3907-4.3907 0.04008-0.04004-4.4191-4.3395-0.01166-0.011-0.19384-0.19383c-1.2122-1.2122-3.1785-1.2122-4.3907 0z" fill="#fcbf00"/>
    </g>
  </g>
  <g id="clips" display="none">
    <rect id="half" width="44" height="31" display="inline"/>
    <path id="75-degree" d="m0 0h53.7l-19.4 31h-34.3z" display="inline"/>
    <path id="45-degree" d="m0 0h72.5l-57 31h-15.5z" display="inline"/>
    <path id="diagonal" d="m88 0-88 31v-31z" display="inline"/>
  </g>
  <g id="overlays">
    <g id="outset">
      <path id="outset-2" d="m0 6e-8h2v29l-2 2zm0 0h88l-2 2h-86z" fill="#fff" fill-opacity=".66667"/>
      <path id="outset-1" d="m86 2 2-2v31h-2zm-84 27h86v2h-88z" fill="#000" fill-opacity=".66667"/>
    </g>
    <g id="outset-double">
      <path id="outset-double-4" d="m0 6e-8h2v29l-2 2zm0 0 44-6e-8 -2 2-42 1e-7z" fill="#fff" fill-opacity=".66667"/>
      <path id="outset-double-3" d="m44 0h2v29l-2 2zm0 0 44.1-1e-7 -2 2-42 1e-7z" fill="#fff" fill-opacity=".66667"/>
      <path id="outset-double-2" d="m86 2 2-2v31h-2zm-40 27h42v2h-44z" fill-opacity=".66667"/>
      <path id="outset-double-1" d="m42 2 2-2v31h-2zm-40 27h42v2h-44z" fill-opacity=".66667"/>
    </g>
  </g>
</svg>
