<?xml version="1.0" encoding="UTF-8"?>
<svg id="svg1" width="88" height="31" version="1.1" viewBox="0 0 88 31" xml:space="preserve" xmlns="http://www.w3.org/2000/svg">
  
  
  <g id="flags" stroke-width=".01">
    <g id="agender">
      <path id="agender-7" d="m0 0h88v31h-88z" fill="#000"/>
      <path id="agender-6" d="m0 0h88v27h-88z" fill="#bababa"/>
      <path id="agender-5" d="m0 0h88v22h-88z" fill="#fff"/>
      <path id="agender-4" d="m0 0h88v18h-88z" fill="#baf484"/>
      <path id="agender-3" d="m0 0h88v13h-88z" fill="#fff"/>
      <path id="agender-2" d="m0 0h88v9h-88z" fill="#bababa"/>
      <path id="agender-1" d="m0 0h88v4h-88z" fill="#000"/>
    </g>
    <g id="fluid">
      <path id="fluid-5" d="m0 0h88v31h-88z" fill="#303cbe"/>
      <path id="fluid-4" d="m0 0h88v25h-88z" fill="#000"/>
      <path id="fluid-3" d="m0 0h88v19h-88z" fill="#bf12d7"/>
      <path id="fluid-2" d="m0 0h88v12h-88z" fill="#fff"/>
      <path id="fluid-1" d="m0 0h88v6h-88z" fill="#fe76a2"/>
    </g>
    <g id="pan">
      <path id="pan-3" d="m0 0h88v31h-88z" fill="#1ab3ff"/>
      <path id="pan-2" d="m0 0h88v21h-88z" fill="#ffd700"/>
      <path id="pan-1" d="m0 0h88v10h-88z" fill="#ff1c8d"/>
    </g>  
    <g id="enby">
      <path id="enby-4" d="m0 0h88v31h-88z" fill="#000"/>
      <path id="enby-3" d="m0 0h88v23h-88z" fill="#9d59d2"/>
      <path id="enby-2" d="m0 0h88v16h-88z" fill="#fff"/>
      <path id="enby-1" d="m0 0h88v8h-88z" fill="#fff430"/>
    </g>  
    <g id="trans">
      <path id="trans-5" d="m0 0h88v31h-88z" fill="#5bcefa"/>
      <path id="trans-4" d="m0 0h88v25h-88z" fill="#f5a9b8"/>
      <path id="trans-3" d="m0 0h88v19h-88z" fill="#fff"/>
      <path id="trans-2" d="m0 0h88v12h-88z" fill="#f5a9b8"/>
      <path id="trans-1" d="m0 0h88v6h-88z" fill="#5bcefa"/>
    </g>
    <g id="bi">
      <path id="bi-3" d="m0 0h88v31h-88z" fill="#0038a8"/>
      <path id="bi-2" d="m0 0h88v19h-88z" fill="#9b4f96"/>
      <path id="bi-1" d="m0 0h88v12h-88z" fill="#d60270"/>
    </g>
    <g id="lesbi">
      <path id="lesbi-5" d="m0 0h88v31h-88z" fill="#a20160"/>
      <path id="lesbi-4" d="m0 0h88v25h-88z" fill="#d161a2"/>
      <path id="lesbi-3" d="m0 0h88v19h-88z" fill="#fff"/>
      <path id="lesbi-2" d="m0 0h88v12h-88z" fill="#fd9855"/>
      <path id="lesbi-1" d="m0 0h88v6h-88z" fill="#d62e02"/>
    </g>
    <g id="lesbi-7">
      <path id="lesbi-7-7" d="m0 0h88v31h-88z" fill="#a30262"/>
      <path id="lesbi-7-6" d="m0 0h88v27h-88z" fill="#b55690"/>
      <path id="lesbi-7-5" d="m0 0h88v22h-88z" fill="#d162a4"/>
      <path id="lesbi-7-4" d="m0 0h88v18h-88z" fill="#fff"/>
      <path id="lesbi-7-3" d="m0 0h88v13h-88z" fill="#ff9a56"/>
      <path id="lesbi-7-2" d="m0 0h88v9h-88z" fill="#ef7627"/>
      <path id="lesbi-7-1" d="m0 0h88v4h-88z" fill="#d52d00"/>
    </g>
  </g>
  <g id="clips" display="none">
    <rect id="half" width="44" height="31" display="inline"/>
    <path id="45-degree" d="m0 0h72.5l-57 31h-15.5z" display="inline"/>
    <path id="diagonal" d="m88 0-88 31v-31z" display="inline"/>
    <path id="75-degree" d="m0 0h53.7l-19.4 31h-34.3z" display="inline"/>
  </g>
</svg>
